<?xml version="1.0" encoding="UTF-8" standalone="no"?>
<svg width="14px" height="15px" viewBox="0 0 14 15" version="1.1" xmlns="http://www.w3.org/2000/svg" xmlns:xlink="http://www.w3.org/1999/xlink">
    <!-- Generator: Sketch 46.2 (44496) - http://www.bohemiancoding.com/sketch -->
    <title>OS_Android@1x</title>
    <desc>Created with Sketch.</desc>
    <defs></defs>
    <g id="首页" stroke="none" stroke-width="1" fill="none" fill-rule="evenodd" opacity="0.581974638">
        <g id="Desktop-HD" transform="translate(-482.000000, -3189.000000)" fill="#615B5B">
            <g id="Group-7" transform="translate(280.000000, 2842.000000)">
                <g id="Group-23" transform="translate(2.000000, 47.000000)">
                    <g id="Group-22" transform="translate(14.000000, 16.000000)">
                        <g id="Group-21" transform="translate(164.000000, 284.000000)">
                            <g id="OS_Android" transform="translate(22.086022, 0.000000)">
                                <path d="M12.5641856,10 C12.1494333,10 11.9032258,9.71653846 11.9032258,9.23076923 L11.9032258,5.76923077 C11.9032258,5.28307692 12.1494333,5 12.5641856,5 C12.9786075,5 13.2258065,5.21807692 13.2258065,5.70423077 L13.2258065,9.15653846 C13.2258065,9.64230769 12.9786075,10 12.5641856,10 Z M9.78709677,12.1962579 L8.99354839,12.1962579 L8.99354839,14.1952185 C8.99354839,14.7001559 8.69795161,14.990405 8.2,14.9948027 C7.70561935,14.9988006 7.40764194,14.7073522 7.39018387,14.1804262 C7.33146129,14.1056651 7.40645161,12.1962579 7.40645161,12.1962579 L5.81935484,12.1962579 L5.81935484,14.1952185 C5.81935484,14.7001559 5.51542581,15 5.01747419,15 C4.51952258,15 4.23225806,14.7001559 4.23225806,14.1952185 L4.23225806,12.1962579 L3.43870968,12.1962579 C3.05066452,12.1962579 2.64516129,11.7848719 2.64516129,11.3966737 L2.64516129,5 L10.5806452,5 L10.5806452,11.3966737 C10.5806452,11.7848719 10.1751419,12.1962579 9.78709677,12.1962579 Z M4.70124516,1.20313307 L3.95967419,0.194591769 C3.91642581,0.135309952 3.92753548,0.0561424615 3.98467097,0.0193727268 C4.04220323,-0.0181474108 4.12433548,0.000612657996 4.16877419,0.0602696766 L5.02580645,1.12359037 C5.5324871,0.935989686 6.00861613,0.815550045 6.6025871,0.815550045 C7.19616129,0.815550045 7.69331935,0.935989686 8.2,1.12359037 L9.03679677,0.0602696766 C9.08083871,0.000612657996 9.16297097,-0.0181474108 9.22050323,0.0193727268 C9.27763871,0.0561424615 9.28874839,0.135309952 9.24510323,0.194591769 L8.50353226,1.20313307 C9.68195161,1.71640855 10.4755,2.61126383 10.5806452,3.75 L2.64516129,3.75 C2.75030645,2.61126383 3.52282581,1.71640855 4.70124516,1.20313307 Z M8.59677419,3.75 C9.00875806,3.75 9.25806452,3.469375 9.25806452,3.125 C9.25806452,2.78 9.00875806,2.5 8.59677419,2.5 C8.18545161,2.5 7.93548387,2.78 7.93548387,3.125 C7.93548387,3.469375 8.18545161,3.75 8.59677419,3.75 Z M4.63002271,3.75 C5.04138953,3.75 5.29032258,3.469375 5.29032258,3.125 C5.29032258,2.78 5.04138953,2.5 4.63002271,2.5 C4.21931619,2.5 3.96774194,2.785 3.96774194,3.13 C3.96774194,3.474375 4.21931619,3.75 4.63002271,3.75 Z M9.25806452,0 L9.26054404,0.00119604508 C9.25971754,0.00159472677 9.25930428,0.00199340846 9.25847777,0.00199340846 L9.25806452,0 Z M0.661620803,10 C0.247198981,10 0,9.64923077 0,9.16384615 L0,5.72653846 C0,5.24076923 0.247198981,5 0.661620803,5 C1.0763731,5 1.32258065,5.28307692 1.32258065,5.76923077 L1.32258065,9.23076923 C1.32258065,9.71653846 1.0763731,10 0.661620803,10 Z" id="Shape"></path>
                            </g>
                        </g>
                    </g>
                </g>
            </g>
        </g>
    </g>
</svg>