<?xml version="1.0" encoding="UTF-8" standalone="no"?>
<svg width="91px" height="87px" viewBox="0 0 91 87" version="1.1" xmlns="http://www.w3.org/2000/svg" xmlns:xlink="http://www.w3.org/1999/xlink">
    <!-- Generator: Sketch 46.2 (44496) - http://www.bohemiancoding.com/sketch -->
    <title>Group 31@1x</title>
    <desc>Created with Sketch.</desc>
    <defs></defs>
    <g id="首页" stroke="none" stroke-width="1" fill="none" fill-rule="evenodd">
        <g id="Desktop-HD" transform="translate(-675.000000, -1113.000000)" fill="#636E7D">
            <g id="Group-31" transform="translate(675.000000, 1113.000000)">
                <path d="M44.3133715,28.2224044 C44.8761189,27.1864212 44.5375954,25.8631344 43.551557,25.2631767 L38.1548695,22.037489 C37.168831,21.4426014 35.8896608,21.8014493 35.3269134,22.8323624 L27.057425,37.8690472 L17.9413545,54.4290047 L10.334147,68.2556341 C9.76647765,69.2865472 10.1099231,70.6149041 11.0959616,71.1996516 L16.492649,74.4354794 C17.4786875,75.030367 18.7529358,74.6715191 19.3255272,73.645676 L29.8952251,54.4290047 L36.725852,42.01298 C36.725852,42.01298 44.3133715,28.2224044 44.3133715,28.2224044 Z" id="Path-Copy"></path>
                <path d="M41.0005753,46.4 L32.7010081,61.8163763 L61.9955928,61.8163763 L54.5272948,46.4 C54.5278417,46.4 41.0005753,46.4 41.0005753,46.4 Z" id="Path-Copy-2"></path>
                <path d="M16.4252264,46.4 L5.13363681,46.4 C2.38552629,46.4 0.154771505,48.702936 0.154771505,51.5387921 L0.154771505,56.6826542 C0.154771505,59.5185104 2.3849794,61.8163763 5.13363681,61.8163763 L7.46392515,61.8163763 C7.46337827,61.8163763 16.4252264,46.4 16.4252264,46.4 Z" id="Path-Copy-3"></path>
                <path d="M15.6048721,75.981656 L10.2131066,72.7508982 C9.22706812,72.1610807 8.31595327,72.6483703 8.18196579,73.8229352 L7.246241,82.2950131 C7.11662862,83.4746481 7.77890958,83.8999702 8.72502524,83.2335384 L15.6901866,78.2795219 C16.6357553,77.6074567 16.6007545,76.5714735 15.6048721,75.981656 Z" id="Path-Copy-4"></path>
                <path d="M74.3564175,54.6728816 L74.24704,54.4627555 L70.8415705,47.7083029 L70.3936695,46.8210416 L70.1049128,46.2622078 L69.8610009,45.7698482 L69.4130999,44.887657 L69.2736436,44.6161268 L68.7655849,43.6060573 L68.6162846,43.3086135 C64.8126809,35.8156215 60.0378047,26.5796539 57.095549,21.7281654 C51.9427735,13.2200338 45.0569109,-0.950233291 43.1351476,0.0502594474 C40.4417259,1.4501606 48.7762939,19.4460731 51.5342484,26.2106658 C54.2922029,32.9701886 65.0565928,58.8894852 67.212424,60.0178563 C69.3682551,61.1462273 70.2093684,60.520356 71.6482298,59.9001181 C73.0963884,59.2680501 75.6755106,57.1910136 74.3564175,54.6728816 Z" id="Path-Copy-5"></path>
                <path d="M85.7622417,46.4 L75.152621,46.4 L83.6911781,61.8163763 L85.7622417,61.8163763 C88.5152742,61.8163763 90.741107,59.5190737 90.741107,56.6826542 L90.741107,51.5387921 C90.741107,48.702936 88.5158211,46.4 85.7622417,46.4 Z" id="Path-Copy-6"></path>
                <path d="M80.7214166,67.3552609 L78.1521383,62.2063287 C77.569703,61.0419039 76.2002962,60.5653178 75.1103491,61.1500653 L72.0133243,62.8119198 C70.9228303,63.3966672 70.5793848,64.7813582 71.2515098,65.8939557 L74.5027569,71.2530139 C75.1748819,72.3605413 76.5885865,72.7250226 77.6440797,72.0529574 L79.8545996,70.6682664 C80.9106397,70.0119748 81.2989299,68.5146157 80.7214166,67.3552609 Z" id="Path-Copy-7"></path>
                <path d="M79.4965321,75.0390572 C78.6898728,75.8542109 76.7681096,77.6084532 79.0934759,81.0239867 C81.4133734,84.4395202 86.6011498,84.5933122 87.2885876,86.8601944 C87.2836656,86.8601944 88.9112033,69.5053634 79.4965321,75.0390572 Z" id="Path-Copy-8"></path>
            </g>
        </g>
    </g>
</svg>