<?xml version="1.0" encoding="UTF-8" standalone="no"?>
<svg width="76px" height="89px" viewBox="0 0 76 89" version="1.1" xmlns="http://www.w3.org/2000/svg" xmlns:xlink="http://www.w3.org/1999/xlink">
    <!-- Generator: Sketch 46.2 (44496) - http://www.bohemiancoding.com/sketch -->
    <title>Group 14@1x</title>
    <desc>Created with Sketch.</desc>
    <defs></defs>
    <g id="首页" stroke="none" stroke-width="1" fill="none" fill-rule="evenodd">
        <g id="Desktop-HD" transform="translate(-1002.000000, -1113.000000)" fill-rule="nonzero" fill="#636E7D">
            <g id="Group-3" transform="translate(348.000000, 1112.000000)">
                <g id="Group-14" transform="translate(654.000000, 1.000000)">
                    <path d="M73.545163,12.4174402 C75.0845293,13.7872191 75.9691403,15.7243727 75.9691403,17.7619713 L75.9691401,30.9549361 C75.9691401,52.9130395 69.3744065,68.3598002 58.2780004,78.290588 C54.3155399,81.8368132 50.0355479,84.4285537 45.7029906,86.2166127 C44.1394423,86.8618936 42.6621058,87.3621378 41.3014673,87.736641 C40.4093148,87.9821976 39.7216423,88.1339844 39.1764296,88.2301647 C38.7513532,88.2995818 38.3122958,88.3344852 37.8772193,88.3344852 C37.4425101,88.3344852 37.009145,88.2999802 36.5495411,88.2257209 C36.0361592,88.1348843 35.3468208,87.9818346 34.4586879,87.7357779 C33.1063737,87.36112 31.6380372,86.8605193 30.0842489,86.2147815 C25.7803691,84.426135 21.5289861,81.8333164 17.5936107,78.2858757 C6.57702099,68.3552606 0.0309573263,52.9104406 0.0309573263,30.9549361 L0.0309573263,17.7619713 C0.0309573263,15.7249236 0.91297145,13.7882105 2.45365769,12.4147386 C3.84840203,11.1706461 5.67603049,10.4864433 7.56766289,10.4864433 C7.79883364,10.4864433 7.9110055,10.4884485 8.07541094,10.5002565 C8.30838494,10.5223665 9.27377331,10.5559419 10.2963916,10.5559419 C13.8107032,10.5559419 17.6449567,10.2369255 20.9791084,9.45671971 C21.1006869,9.42820052 21.2233611,9.39726913 21.3471034,9.36394318 C23.5157277,8.77989505 25.9208028,7.49305131 28.4060825,5.70335222 C30.4761259,4.21267305 34.0056586,1.08136805 33.734585,1.26004804 C34.9721426,0.475221802 36.4120856,0.0655164431 37.8748742,0.0655164431 C39.3478982,0.0655164431 40.7906926,0.478369692 42.0263518,1.27157928 C42.5177361,1.58510054 46.3219737,4.60260931 47.6816774,5.57717118 C49.5445282,6.91236153 51.2414707,7.94578306 52.8077155,8.65136764 C53.6281173,9.02095409 54.3947642,9.29118081 55.0987617,9.45641988 C58.4424623,10.2384476 62.2178878,10.5559419 65.7014585,10.5559419 C66.2941117,10.5559419 66.835452,10.546212 67.3018295,10.5299605 C67.5851511,10.5200878 67.8445607,10.5064244 67.9210467,10.499752 C68.0873339,10.4884133 68.2027355,10.4864433 68.438609,10.4864433 C70.3294777,10.4864433 72.1541303,11.1715863 73.545163,12.4174402 Z M35.7218628,4.82574704 C35.3472868,5.1763921 34.994424,5.49962349 34.589049,5.85926107 C33.3814898,6.93057457 32.1037803,7.96978183 30.7435575,8.94930521 C27.9005068,10.9966422 25.0974242,12.4964413 22.3873091,13.2263223 C22.2218281,13.2708891 22.0569262,13.3124679 21.8915574,13.3512589 C18.2068229,14.2135029 14.0910537,14.5559419 10.2963916,14.5559419 C9.15496877,14.5559419 8.07120991,14.5182497 7.78886264,14.4899796 C7.75172779,14.4873125 7.70310768,14.4864433 7.56766289,14.4864433 C6.64970464,14.4864433 5.77172076,14.815131 5.11584257,15.4001651 C4.41966711,16.020783 4.03095733,16.874306 4.03095733,17.7619713 L4.03095733,30.9549361 C4.03095733,51.8022659 10.1165274,66.1605946 20.2718058,75.3148033 C23.8523669,78.542406 27.7167195,80.8991838 31.619319,82.5210625 C33.0163271,83.1016442 34.3289785,83.5491671 35.5266566,83.8809831 C36.2866437,84.0915371 36.8530232,84.2172869 37.2159992,84.2817535 C37.4343221,84.3169136 37.6550123,84.3344852 37.8772193,84.3344852 C38.0984515,84.3344852 38.3219675,84.3167165 38.5060319,84.2868302 C38.9078159,84.2158248 39.4745815,84.0907252 40.2399783,83.8800568 C41.4469219,83.5478568 42.7694612,83.1000288 44.1770257,82.5191228 C48.1094054,80.8962183 52.0030048,78.5384571 55.6104593,75.3099464 C65.8400202,66.1549464 71.9691401,51.7987866 71.9691401,30.9549361 L71.9691403,17.7619713 C71.9691403,16.8758744 71.5795188,16.022667 70.8813095,15.401371 C70.2255408,14.8140573 69.3530489,14.4864433 68.4389817,14.4864433 C67.9717659,14.5170012 66.854262,14.5559419 65.7014585,14.5559419 C61.9375417,14.5559419 57.8792027,14.2146559 54.186282,13.3509517 C53.213042,13.1225182 52.2070685,12.7679339 51.1647573,12.2983785 C49.3211339,11.4678364 47.4117306,10.3050283 45.3514318,8.82831797 C43.8407461,7.74554041 40.1576029,4.82408331 39.8701888,4.64069353 C39.2825175,4.2634526 38.5907918,4.06551644 37.8748742,4.06551644 C37.2062676,4.06551644 36.5512899,4.24040807 36.0080964,4.55715783 C35.9415452,4.61954377 35.7793559,4.77192706 35.7218628,4.82574704 Z" id="Shape"></path>
                    <path d="M21.4250409,42.1081184 C20.6500182,41.32109 19.3837257,41.3113575 18.5966973,42.0863802 C17.809669,42.8614029 17.7999364,44.1276954 18.5749591,44.9147238 L31.9490798,58.4960195 C32.7428358,59.3020714 34.0465872,59.2898871 34.8251398,58.469141 L60.4510191,31.4544754 C61.2111972,30.6530997 61.1777999,29.3872102 60.3764242,28.6270321 C59.5750485,27.866854 58.309159,27.9002513 57.5489809,28.701627 L33.3472266,54.2149876 L21.4250409,42.1081184 Z" id="Path-2"></path>
                </g>
            </g>
        </g>
    </g>
</svg>