<?xml version="1.0" encoding="UTF-8" standalone="no"?>
<svg width="12px" height="13px" viewBox="0 0 12 13" version="1.1" xmlns="http://www.w3.org/2000/svg" xmlns:xlink="http://www.w3.org/1999/xlink">
    <!-- Generator: Sketch 46.2 (44496) - http://www.bohemiancoding.com/sketch -->
    <title>Group 24@1x</title>
    <desc>Created with Sketch.</desc>
    <defs></defs>
    <g id="首页" stroke="none" stroke-width="1" fill="none" fill-rule="evenodd">
        <g id="Desktop-HD" transform="translate(-505.000000, -3555.000000)" fill-rule="nonzero">
            <g id="Group-24" transform="translate(505.000000, 3555.000000)">
                <g id="html5_1202638_easyicon.net">
                    <polygon id="Shape" fill="#BCBABF" points="0 0 12 0 10.8000088 11.7812193 6.40001172 13 5.60003222 13 1.19999121 11.7812193"></polygon>
                    <path d="M6,1 L10,1 L9.27274543,9.84616197 L6.00003994,11 C6,11 6,1 6,1 Z" id="Shape" fill="#7F659D"></path>
                    <polygon id="Shape" fill="#FFFFFF" points="9.87305011 3.2576906 10 2 3 2 3.14107511 3.2576906 3.27010614 4.95032115 3.2684678 4.95032115 3.39063548 6.21009302 8.08322053 6.21009302 7.92199815 8.21431338 6.64089799 8.6370432 6.64089799 8.62400056 4.93736953 8.15367894 4.83295801 7.04926259 3.41038422 7.04926259 3.60145111 9.07790323 3.60145111 9.16083043 6.64089799 10 9.18977013 9.16083043 9.22081019 9.16083043 9.22160723 9.1494528 9.22723075 9.14862029 9.22723075 9.08211203 9.4578394 6.21009302 9.46306441 6.21009302 9.58563061 4.95032115 4.74949078 4.95032115 4.62050403 3.2576906"></polygon>
                    <g id="Group" transform="translate(2.000000, 2.000000)" fill="#E5E5E5">
                        <polygon id="Shape" points="3.98337349 0.028183908 0.0207228916 0.028183908 0.17426506 1.27843678 0.314698795 2.96105747 0.312915663 2.96105747 0.445879518 4.21337931 3.98337349 4.21337931 3.98337349 2.96105747 1.92481928 2.96105747 1.78443373 1.27843678 3.98337349 1.27843678"></polygon>
                        <polygon id="Shape" points="3.98337349 6.61301149 2.1293012 6.14547126 2.01566265 5.04758621 0.467373494 5.04758621 0.675325301 7.06422989 0.675325301 7.14666667 3.98337349 7.98087356 3.98337349 6.62597701"></polygon>
                    </g>
                </g>
            </g>
        </g>
    </g>
</svg>