<?xml version="1.0" encoding="UTF-8" standalone="no"?>
<svg width="13px" height="14px" viewBox="0 0 13 14" version="1.1" xmlns="http://www.w3.org/2000/svg" xmlns:xlink="http://www.w3.org/1999/xlink">
    <!-- Generator: Sketch 46.2 (44496) - http://www.bohemiancoding.com/sketch -->
    <title>OS_Apple@1x</title>
    <desc>Created with Sketch.</desc>
    <defs></defs>
    <g id="首页" stroke="none" stroke-width="1" fill="none" fill-rule="evenodd" opacity="0.581974638">
        <g id="Desktop-HD" transform="translate(-460.000000, -3189.000000)" fill="#615B5B">
            <g id="Group-7" transform="translate(280.000000, 2842.000000)">
                <g id="Group-23" transform="translate(2.000000, 47.000000)">
                    <g id="Group-22" transform="translate(14.000000, 16.000000)">
                        <g id="Group-21" transform="translate(164.000000, 284.000000)">
                            <g id="OS_Apple" transform="translate(0.924731, 0.882353)">
                                <path d="M8.15762096,12.3020019 C7.44005763,12.3020019 6.7031007,11.8295651 5.91057363,11.8295651 C5.00392266,11.8295651 4.24869099,12.3529412 3.6068373,12.3529412 C2.71957994,12.3529412 1.92630697,11.6610992 1.28445328,10.5980331 C0.396822964,9.14643021 0,7.47542216 0,6.39570924 C0,4.35347705 1.94532762,2.78401461 3.90892997,2.78401461 C4.85287633,2.78401461 5.21203095,3.44189704 6.08064061,3.44189704 C7.17600626,3.44189704 7.83613469,2.75005509 8.62940766,2.75005509 C9.76244165,2.75005509 10.4990256,3.35766412 11.046522,3.96527314 L11.0088536,3.9822529 C10.1775394,4.50529607 9.72477331,5.31533046 9.72477331,6.24389022 C9.72477331,7.39118923 10.3293316,8.18424386 11.4433449,8.72459972 L11.4433449,8.80883265 C11.4433449,8.85910605 11.4623656,8.91004533 11.4623656,8.97763143 C11.4623656,10.310709 9.87581964,12.3020019 8.15762096,12.3020019 Z M6.0411075,3.22315779 L6.0411075,3.15557169 C6.00381211,2.97045902 5.9844185,2.80166024 5.9844185,2.66648804 C5.9844185,1.23219781 7.15512084,0.320284867 8.45822181,0 L8.47724246,0.0675860997 C8.49589016,0.236051944 8.51491081,0.388203903 8.51491081,0.506396343 C8.51491081,2.00860561 7.32518782,2.86891341 6.0411075,3.22315779 Z" id="Shape"></path>
                            </g>
                        </g>
                    </g>
                </g>
            </g>
        </g>
    </g>
</svg>