<?xml version="1.0" encoding="UTF-8" standalone="no"?>
<svg width="81px" height="84px" viewBox="0 0 81 84" version="1.1" xmlns="http://www.w3.org/2000/svg" xmlns:xlink="http://www.w3.org/1999/xlink">
    <!-- Generator: Sketch 46.2 (44496) - http://www.bohemiancoding.com/sketch -->
    <title>Group 17@1x</title>
    <desc>Created with Sketch.</desc>
    <defs></defs>
    <g id="首页" stroke="none" stroke-width="1" fill="none" fill-rule="evenodd">
        <g id="Desktop-HD" transform="translate(-999.000000, -1345.000000)" fill-rule="nonzero" fill="#636E7D">
            <g id="Group-3" transform="translate(348.000000, 1112.000000)">
                <g id="Group-17" transform="translate(651.000000, 233.000000)">
                    <path d="M63.8327048,8.40716467 L38.5206963,33.1719087 L17.5800556,19.5567374 C16.8383827,19.074517 15.8680185,19.1368425 15.1941304,19.709983 L0.704262766,32.0335861 C-0.137145365,32.749202 -0.239120105,34.0114194 0.476495809,34.8528275 C1.19211172,35.6942357 2.4543291,35.7962104 3.29573723,35.0805945 L6.91820413,31.9996937 C10.7027011,28.7809867 11.0982485,28.4445744 15.9084736,24.3534877 L16.6497678,23.7230185 L37.6837692,37.3988911 C38.4689337,37.9093888 39.5032071,37.8066762 40.172632,37.1517247 L66.7019865,11.1959547 L72.1219883,16.4639096 L74.5983325,0.0143187648 L58.6141505,3.33500608 L63.8327048,8.40716467 Z" id="Combined-Shape"></path>
                    <path d="M2.12740569,76.7136634 C1.02283619,76.7136634 0.127405693,75.8182329 0.127405693,74.7136634 L0.127405693,48.0946094 C0.127405693,47.5213792 0.37336951,46.9757037 0.802872702,46.5960726 L16.5784919,32.6522516 C17.2803256,32.0319118 18.3186866,31.9817753 19.0770214,32.5316119 L25.020333,36.8408565 C25.5391946,37.2170612 25.8463364,37.8191372 25.8463364,38.4600329 L25.8463364,74.7136634 C25.8463364,75.8182329 24.9509059,76.7136634 23.8463364,76.7136634 L2.12740569,76.7136634 Z M21.8463364,72.7136634 L21.8463364,39.480309 L18.0266333,36.7108033 L4.12740569,48.9961115 L4.12740569,72.7136634 L21.8463364,72.7136634 Z M49.3740378,37.1654599 C50.6674756,36.0351771 52.6900739,36.9537564 52.6900739,38.6714642 L52.6900739,74.7136634 C52.6900739,75.8182329 51.7946434,76.7136634 50.6900739,76.7136634 L28.9711431,76.7136634 C27.8665736,76.7136634 26.9711431,75.8182329 26.9711431,74.7136634 L26.9711431,41.5022105 C26.9711431,39.971143 28.6212054,39.0078747 29.9544466,39.7606266 L39.9476351,45.4028106 L49.3740378,37.1654599 Z M48.6900739,72.7136634 L48.6900739,43.0752179 L41.5134343,49.3465919 C40.8745466,49.9048899 39.9529218,49.9993153 39.2140948,49.5821714 L30.9711431,44.9281763 L30.9711431,72.7136634 L48.6900739,72.7136634 Z M53.8148806,34.4048101 C53.8148806,33.8736891 54.0261398,33.3643795 54.4020717,32.9891932 L66.8494951,20.566461 C67.717233,19.7004443 69.1527692,19.8118185 69.8765499,20.8013112 L79.1480573,33.4765442 C79.3987081,33.8192131 79.5338113,34.2327549 79.5338113,34.6573109 L79.5338113,74.7136634 C79.5338113,75.8182329 78.6383808,76.7136634 77.5338113,76.7136634 L55.8148806,76.7136634 C54.7103111,76.7136634 53.8148806,75.8182329 53.8148806,74.7136634 L53.8148806,34.4048101 Z M57.8148806,72.7136634 L75.5338113,72.7136634 L75.5338113,35.3107068 L68.0246826,25.0448511 L57.8148806,35.2344006 L57.8148806,72.7136634 Z" id="Shape"></path>
                    <path d="M2.48734177,83.9512195 L78.5126582,83.9512195 C79.6172277,83.9512195 80.5126582,83.055789 80.5126582,81.9512195 C80.5126582,80.84665 79.6172277,79.9512195 78.5126582,79.9512195 L2.48734177,79.9512195 C1.38277227,79.9512195 0.487341772,80.84665 0.487341772,81.9512195 C0.487341772,83.055789 1.38277227,83.9512195 2.48734177,83.9512195 Z" id="Line-6"></path>
                </g>
            </g>
        </g>
    </g>
</svg>