<?xml version="1.0" encoding="UTF-8" standalone="no"?>
<svg width="12px" height="12px" viewBox="0 0 12 12" version="1.1" xmlns="http://www.w3.org/2000/svg" xmlns:xlink="http://www.w3.org/1999/xlink">
    <!-- Generator: Sketch 46.2 (44496) - http://www.bohemiancoding.com/sketch -->
    <title>电脑 copy@1x</title>
    <desc>Created with Sketch.</desc>
    <defs></defs>
    <g id="首页" stroke="none" stroke-width="1" fill="none" fill-rule="evenodd">
        <g id="Desktop-HD" transform="translate(-437.000000, -3192.000000)" fill-rule="nonzero" fill="#A19D9D">
            <g id="电脑-copy" transform="translate(437.000000, 3192.000000)">
                <path d="M11.4082888,9.85325764 L7.73443902,9.85325764 L7.73443902,10.9238908 L8.5076839,11.7798734 L8.5076839,11.9938821 L3.48058537,11.9938821 L3.48058537,11.7798865 L4.25383024,10.9238908 L4.25383024,9.85325764 L0.580284878,9.85325764 C0.259738537,9.85325764 0.00028097561,9.56579476 0.00028097561,9.21061572 L0.00028097561,0.648432314 C0.00028097561,0.293895197 0.259750244,0.00611790393 0.580284878,0.00611790393 L11.4082888,0.00611790393 C11.7288351,0.00611790393 11.9885737,0.293580786 11.9885737,0.648432314 L11.9885737,9.21094323 C11.9885737,9.56579476 11.7288351,9.85325764 11.4082888,9.85325764 Z M11.2147668,0.862755459 L0.773525854,0.862755459 L0.773525854,8.14126638 L11.2147668,8.14126638 L11.2147668,0.862755459 Z" id="Shape"></path>
            </g>
        </g>
    </g>
</svg>