<?xml version="1.0" encoding="UTF-8" standalone="no"?>
<svg width="26px" height="26px" viewBox="0 0 26 26" version="1.1" xmlns="http://www.w3.org/2000/svg" xmlns:xlink="http://www.w3.org/1999/xlink">
    <!-- Generator: Sketch 46.2 (44496) - http://www.bohemiancoding.com/sketch -->
    <title>Shape@1x</title>
    <desc>Created with Sketch.</desc>
    <defs></defs>
    <g id="首页" stroke="none" stroke-width="1" fill="none" fill-rule="evenodd">
        <g id="Desktop-HD" transform="translate(-636.000000, -486.000000)" fill-rule="nonzero" fill="#E8E7EB">
            <g id="Group-15" transform="translate(636.000000, 486.000000)">
                <path d="M24.7294419,19.9630751 L20.8228551,16.0560414 C20.0448446,15.281159 18.7560552,15.3048434 17.9507853,16.1101133 L15.982745,18.0781537 C15.8585135,18.0093348 15.7298133,17.9378347 15.59441,17.8618659 C14.3516489,17.1732305 12.6503933,16.2294291 10.8602094,14.4379047 C9.06510998,12.6428052 8.119968,10.9388684 7.42954513,9.69521345 C7.35625752,9.56338514 7.28654492,9.43647245 7.21772607,9.31581603 L8.53869047,7.99663913 L9.18800078,7.34643507 C9.99461132,6.53982453 10.0169551,5.25148205 9.24028524,4.4743653 L5.33369835,0.566884669 C4.55747536,-0.209338325 3.26823913,-0.185653915 2.46162859,0.620956622 L1.360527,1.72831447 C1.02179526,2.22926207 0.713004193,2.77266285 0.483756988,3.35851682 C0.271937932,3.91621762 0.140109617,4.44844651 0.0797814054,4.98156916 C-0.435913088,9.25816907 1.5182741,13.1665435 6.82179425,18.4705105 C14.1527892,25.8010585 20.0609321,25.2473796 20.3156512,25.2201202 C20.8711176,25.1539826 21.4028996,25.0212605 21.9436192,24.811229 C22.5245575,24.5842162 23.0675114,24.2763188 23.5380715,23.9080933 L24.6776044,22.8369324 C25.4824274,22.0303219 25.5056649,20.7419794 24.7294419,19.9630751 Z" id="Shape"></path>
            </g>
        </g>
    </g>
</svg>