<?xml version="1.0" encoding="UTF-8" standalone="no"?>
<svg width="89px" height="71px" viewBox="0 0 89 71" version="1.1" xmlns="http://www.w3.org/2000/svg" xmlns:xlink="http://www.w3.org/1999/xlink">
    <!-- Generator: Sketch 46.2 (44496) - http://www.bohemiancoding.com/sketch -->
    <title>私有云@1x</title>
    <desc>Created with Sketch.</desc>
    <defs></defs>
    <g id="首页" stroke="none" stroke-width="1" fill="none" fill-rule="evenodd">
        <g id="Desktop-HD" transform="translate(-358.000000, -1352.000000)" fill-rule="nonzero" fill="#636E7D">
            <g id="Group-3" transform="translate(348.000000, 1112.000000)">
                <g id="私有云" transform="translate(10.000000, 240.000000)">
                    <path d="M67.5567567,59.2081082 C68.254054,59.2081082 68.9513513,58.6851352 68.9513513,58.1621622 L68.9513513,49.7945946 C68.9513513,49.2716216 68.4283784,48.7486486 67.5567567,48.7486487 C66.8594595,48.7486487 66.1621622,49.2716216 66.1621622,49.7945946 L66.1621622,58.1621622 C66.1621622,58.8594595 66.6851351,59.2081082 67.5567567,59.2081082 L67.5567567,59.2081082 Z M20.3148649,70.3648649 L41.7567567,70.3648649 C43.1513513,70.3648649 44.1972973,69.3189189 44.1972973,67.9243244 C44.1972973,66.5297298 43.1513513,65.4837838 41.7567567,65.4837838 L20.3148649,65.4837838 C16.1310811,65.4837838 12.295946,63.9148649 9.33243238,60.9513513 C6.36891891,57.9878378 4.8,54.1527026 4.8,49.9689189 C4.8,45.7851352 6.36891891,41.95 9.33243238,38.9864865 C12.2959459,36.0229731 16.1310811,34.4540541 20.3148649,34.454054 L23.8013513,34.454054 C24.4986486,34.454054 25.1959459,34.1054053 25.5445946,33.5824324 C26.0675675,33.0594595 26.2418918,32.3621622 26.2418918,31.6648649 C26.2418918,30.9675676 26.0675675,30.095946 26.0675676,29.3986487 C26.0675676,22.9486487 28.5081082,17.0216216 33.0405405,12.4891892 C37.5729729,7.95675686 43.6743244,5.51621632 49.95,5.51621619 C53.7851351,5.51621619 57.2716216,6.38783782 60.7581082,8.13108109 C63.895946,9.7 66.8594595,12.1405405 68.9513513,14.9297298 C69.8229729,15.9756758 71.3918918,16.15 72.4378378,15.4527027 C73.4837838,14.5810811 73.658108,13.0121622 72.9608108,11.9662162 C70.3459459,8.47972967 66.8594595,5.69054054 63.0243244,3.77297293 C59.0148649,1.68108109 54.6567567,0.809459456 50.1243244,0.809459456 C42.4540541,0.809459456 35.1324325,3.77297293 29.7283784,9.17702707 C24.3243244,14.5810811 21.1864865,21.9027027 21.1864865,29.5729729 L21.1864865,29.7472973 L20.3148649,29.7472973 C14.9108109,29.7472973 9.85540544,31.8391891 6.02027021,35.6743244 C2.1851351,39.5094595 0.0932431377,44.5648649 0.0932432637,49.9689189 C0.0932432637,55.3729729 2.1851351,60.4283784 6.02027021,64.2635135 C9.68108096,68.0986486 14.9108108,70.3648648 20.3148649,70.3648649 L20.3148649,70.3648649 Z M57.6202702,23.645946 C55.1797297,26.2608109 53.7851351,29.5729731 53.7851351,33.4081082 L53.7851351,37.7662162 L51.3445946,37.7662162 C48.7297297,37.7662162 46.4635135,39.6837838 46.4635135,42.1243244 L46.4635135,66.0067567 C46.4635135,68.4472973 48.5554053,70.3648649 51.3445946,70.3648649 L83.9432433,70.3648649 C86.5581082,70.3648649 88.8243244,68.4472973 88.8243244,66.0067567 L88.8243244,42.1243244 C88.8243244,39.6837838 86.7324325,37.7662162 83.9432433,37.7662162 L81.154054,37.7662162 L81.154054,33.4081082 C81.154054,29.7472974 79.7594595,26.2608109 77.3189189,23.645946 C74.704054,21.0310811 71.2175676,19.6364865 67.5567567,19.6364865 C63.7216216,19.4621622 60.2351351,21.0310811 57.6202702,23.645946 L57.6202702,23.645946 Z M83.9432433,40.2067567 C85.1635135,40.2067567 86.2094595,41.0783784 86.2094595,42.1243244 L86.2094595,66.0067567 C86.2094595,67.0527027 85.1635135,67.9243244 83.9432433,67.9243244 L51.3445946,67.9243244 C50.1243244,67.9243244 49.0783784,67.0527027 49.0783784,66.0067567 L49.0783784,42.1243244 C49.0783784,41.0783784 50.1243244,40.2067567 51.3445946,40.2067567 L83.9432433,40.2067567 Z M78.5391892,33.2337838 L78.5391892,37.5918918 L56.4,37.5918918 L56.4,33.2337838 C56.4,26.7837838 61.1067567,22.0770271 67.5567567,22.0770271 C74.0067567,22.0770271 78.5391891,26.9581082 78.5391892,33.2337838 Z" id="Shape"></path>
                </g>
            </g>
        </g>
    </g>
</svg>