<?xml version="1.0" encoding="UTF-8" standalone="no"?>
<svg width="70px" height="90px" viewBox="0 0 70 90" version="1.1" xmlns="http://www.w3.org/2000/svg" xmlns:xlink="http://www.w3.org/1999/xlink">
    <!-- Generator: Sketch 46.2 (44496) - http://www.bohemiancoding.com/sketch -->
    <title>Group 13@1x</title>
    <desc>Created with Sketch.</desc>
    <defs></defs>
    <g id="首页" stroke="none" stroke-width="1" fill="none" fill-rule="evenodd">
        <g id="Desktop-HD" transform="translate(-368.000000, -1112.000000)" fill-rule="nonzero" fill="#636E7D">
            <g id="Group-3" transform="translate(348.000000, 1112.000000)">
                <g id="Group-13" transform="translate(20.000000, 0.000000)">
                    <path d="M52.6432126,58.9058251 L53.7155636,60.5464541 L52.5572581,58.9653379 L52.6005344,58.9337205 L52.6432126,58.9058251 Z M4.84463205,41.4195601 C4.84311978,41.4138503 4.84140479,41.4080694 4.83932424,41.40168 L4.84463205,41.4195601 Z M4.90545381,41.5785 C5.22986721,42.6499652 5.55576859,43.6037551 5.88028015,44.4346998 C5.94917856,44.5423876 6.00818027,44.6578772 6.05578998,44.7801459 C6.60355099,46.1868768 6.89979822,46.9022752 7.199068,47.4936423 C7.32054858,47.6224891 7.42558954,47.7689345 7.50997415,47.9304241 C8.50663648,49.8377694 9.71260111,51.6361789 11.3498256,53.7126019 C11.3692842,53.7318237 12.1966826,54.5385407 13.8320206,56.1327532 L14.3449674,56.633508 L14.8954977,57.1697441 L15.2529571,57.4043857 L17.0009835,58.7396544 C17.0630265,58.7872866 17.1221625,58.83859 17.1780743,58.8932894 C17.3898575,59.0067825 17.5556766,59.113081 17.7038924,59.2436133 C18.8119756,60.2194932 19.67852,61.2921214 20.2965063,62.4971796 C20.7261596,63.3372068 21.0884256,63.8779985 21.3798939,64.1622377 C21.7427936,64.237268 22.1081735,64.2747163 22.5836847,64.2747163 L47.2835602,64.2747163 C47.7593894,64.2747163 48.1244429,64.2374706 48.3724806,64.1739381 C48.7358009,63.9189181 49.050823,63.4140899 49.4525645,62.5582461 C50.0616044,61.2581316 50.9957122,60.1375918 52.2622905,59.1618336 L52.6005344,58.9337205 L52.8661137,58.7396902 L54.0588256,57.8239547 C54.3153459,57.4146858 54.6999432,57.1250482 55.1334006,56.9496278 C55.3347402,56.696173 55.482592,56.5342141 55.6750455,56.3658476 C55.7896215,56.2656117 55.9116241,56.1716107 55.9870973,56.1217575 C56.0765977,56.0562303 56.1601296,55.9987308 56.2378191,55.9486375 C57.1998775,55.0950719 57.8100909,54.5035324 58.3198941,53.9122564 L58.4578718,53.7678159 C59.2247713,52.8369138 59.894598,51.9260703 60.5865941,50.9099567 C61.28705,49.8863136 61.8574855,48.9337679 62.3362317,47.9677859 C62.4242342,47.7902204 62.5369916,47.6300095 62.6691304,47.4904876 C62.9683476,46.8967036 63.2669422,46.1761814 63.8117147,44.7792202 C63.858295,44.6597743 63.9163499,44.5455232 63.9848727,44.4379964 C64.2740455,43.699522 64.5694566,42.8457192 64.8758394,41.8643983 C64.8789546,41.6129169 64.9078743,41.4021522 65.0039014,41.1212099 C65.0490327,40.9891714 65.1062478,40.862795 65.1744217,40.7436192 L65.5604836,38.4846732 C65.5580277,38.3132185 65.5618163,38.1837256 65.5791969,38.014517 C65.6092591,37.7218473 65.6724265,37.440904 65.7862406,37.1745783 C65.8695864,36.2490043 65.907144,35.2400056 65.907144,34.1166706 C65.907144,25.8222635 62.9054767,18.7996638 56.8090283,12.853095 C50.70068,6.90151238 43.4346374,3.96 34.847026,3.96 C26.251004,3.96 18.9913062,6.90705207 12.9824866,12.8431751 C6.94649034,18.8098863 3.96,25.8436488 3.96,34.1166706 C3.96,35.3852682 4.01047833,36.5406711 4.12062738,37.59324 C4.25316446,38.0887417 4.29134976,38.248715 4.2998062,38.5040443 C4.41405479,39.4824344 4.56089435,40.3438311 4.73967465,41.0924555 L4.8315565,41.3755132 C4.85988544,41.4417276 4.8845596,41.5094911 4.90545381,41.5785 Z M0.212774238,37.9125057 C0.0935363031,36.7371587 0.04,35.4782819 0.04,34.1166706 C0.04,24.7876518 3.45160409,16.7526642 10.2271114,10.0549306 C16.9741728,3.38949711 25.2252441,0.04 34.847026,0.04 C44.4544878,0.04 52.7027245,3.37913409 59.5454013,10.0461997 C66.3939659,16.7263936 69.827144,24.7585414 69.827144,34.1166706 C69.827144,35.5393579 69.7715404,36.8156631 69.642825,38.0076594 C69.6206451,38.2130602 69.5663297,38.4120647 69.483156,38.5979038 C69.4834877,38.7440298 69.474117,38.8544856 69.455476,38.9635588 L68.940851,41.9747606 C68.9080651,42.1665993 68.8480753,42.3479311 68.7652486,42.5150721 C68.7519539,42.5845049 68.7348956,42.6532561 68.7141196,42.7210181 C68.3889093,43.7817105 68.0713471,44.722082 67.7544214,45.5574451 C67.7098295,45.9309678 67.5585713,46.2839169 67.3189745,46.5737692 C66.7917649,47.9168 66.4796687,48.6532808 66.1207321,49.3513987 C66.0153265,49.68168 65.8340156,49.9715077 65.5961411,50.2032978 C65.0874453,51.1728894 64.5042746,52.1261489 63.8241556,53.1200646 C63.0534031,54.2518318 62.2981716,55.2761011 61.49657,56.2625253 C61.4448545,56.3261647 61.3891961,56.3864958 61.3299231,56.4431629 C60.5622917,57.304519 59.8232523,58.012708 58.6995726,59.0046416 C58.5679969,59.1207907 58.4214168,59.2187411 58.2637635,59.2958659 C58.2639887,59.3108598 58.0881704,59.5368119 58.0141423,59.6267255 C57.8779377,59.792158 57.7356528,59.9481375 57.5694198,60.1098676 C57.4051844,60.2696542 57.2158752,60.3978491 57.0109249,60.4906205 C56.9837,60.5154638 56.3860686,60.9770709 55.2180308,61.8754418 L54.8738691,62.1275703 L54.5978313,62.3113256 C53.8396359,62.9061683 53.3266917,63.5288315 53.0017178,64.2225503 C52.4174428,65.4672536 51.8828327,66.3239753 51.2256474,66.9670593 C50.3089456,67.8623639 49.0114058,68.1947163 47.2835602,68.1947163 L22.5836847,68.1947163 C20.8570463,68.1947163 19.5574022,67.8611278 18.6424452,66.9680841 C17.9946663,66.3363721 17.4131852,65.4683357 16.8074751,64.2840922 C16.4778626,63.6413573 16.0155467,63.0375322 15.4071994,62.4552527 C15.1483916,62.3320971 14.9132371,62.1601772 14.6944794,61.9474903 L14.5207055,61.7774845 L13.0412922,60.6416971 L12.5871206,60.3435722 C12.4825165,60.2749085 12.384728,60.1963857 12.2950939,60.109079 L11.6082265,59.440044 L11.0943706,58.9384031 L8.72434023,56.6262006 C8.69844108,56.6020713 8.63145995,56.5371679 8.52339686,56.4314902 C8.46264646,56.3724047 8.40579204,56.3094414 8.35319157,56.2429968 C6.66842595,54.1148085 5.37611475,52.2222108 4.2902684,50.2235957 C4.04250048,49.9885226 3.85422965,49.6914497 3.7461146,49.3516507 C3.40122174,48.6829078 3.10182537,47.9818271 2.61129117,46.735071 C2.33392803,46.4163533 2.15329308,46.0087775 2.10888739,45.5487437 C1.79755344,44.7267309 1.49004726,43.8178191 1.18688661,42.8238181 C1.14405543,42.7171907 1.10354454,42.5981267 1.06710696,42.4667668 L0.952815632,42.1101935 C0.716996868,41.1472296 0.532112294,40.0656411 0.394311279,38.8550494 C0.258061549,38.3354603 0.220321186,38.1762404 0.212774238,37.9125057 Z M33.1832504,85.5303737 C34.251796,85.9635121 35.4552376,85.9619125 36.5206957,85.5258903 L39.0899545,84.251873 L30.6929386,84.251873 L33.1832504,85.5303737 Z M22.5836847,80.331873 L47.4545291,80.331873 C49.5262881,80.331873 50.1813546,83.1274612 48.3252607,84.0478418 L38.204842,89.0662496 L38.0984443,89.1151059 C36.0238914,89.9936681 33.6715916,89.9936681 31.5952199,89.1154552 L31.4635618,89.0539198 L21.6885182,84.0355119 C19.8586376,83.0960699 20.5267418,80.331873 22.5836847,80.331873 Z" id="Shape"></path>
                    <path d="M20.7164179,76.2781818 L48.2985075,76.2781818 C49.3809856,76.2781818 50.2585075,75.4006599 50.2585075,74.3181818 C50.2585075,73.2357037 49.3809856,72.3581818 48.2985075,72.3581818 L20.7164179,72.3581818 C19.6339398,72.3581818 18.7564179,73.2357037 18.7564179,74.3181818 C18.7564179,75.4006599 19.6339398,76.2781818 20.7164179,76.2781818 Z" id="Line-7"></path>
                    <path d="M56.9322355,23.2596593 C55.1603305,15.8115255 49.4796889,9.8345987 42.1131668,7.62879592 C41.3354267,7.39591245 40.5161544,7.83760601 40.283271,8.6153461 C40.0503875,9.39308619 40.4920811,10.2123585 41.2698211,10.4452419 C47.6345287,12.3510652 52.5438868,17.5164808 54.072059,23.940093 C54.2599555,24.7299089 55.0525481,25.217861 55.8423641,25.0299644 C56.63218,24.8420678 57.1201321,24.0494752 56.9322355,23.2596593 Z" id="Oval-4" transform="translate(48.596794, 16.318421) rotate(-11.000000) translate(-48.596794, -16.318421) "></path>
                </g>
            </g>
        </g>
    </g>
</svg>