<?xml version="1.0" encoding="UTF-8" standalone="no"?>
<svg width="24px" height="25px" viewBox="0 0 24 25" version="1.1" xmlns="http://www.w3.org/2000/svg" xmlns:xlink="http://www.w3.org/1999/xlink">
    <!-- Generator: Sketch 46.2 (44496) - http://www.bohemiancoding.com/sketch -->
    <title>Shape@1x</title>
    <desc>Created with Sketch.</desc>
    <defs></defs>
    <g id="首页" stroke="none" stroke-width="1" fill="none" fill-rule="evenodd">
        <g id="Desktop-HD" transform="translate(-706.000000, -486.000000)" fill="#E8E7EB">
            <g id="Group-15" transform="translate(636.000000, 486.000000)">
                <path d="M93.3195449,16.697306 C92.7797604,13.651855 90.5123322,11.6568181 90.5123322,11.6568181 C90.8363695,8.89208851 89.6485104,8.40145104 89.6485104,8.40145104 C89.3986101,-0.152634125 81.8233009,-0.00352698284 81.6633648,0.000638021133 C81.5042616,-0.00352698284 73.9272864,-0.152634125 73.6790521,8.40145104 C73.6790521,8.40145104 72.491193,8.89208851 72.8152303,11.6568181 C72.8152303,11.6568181 70.5478022,13.651855 70.0080176,16.697306 C70.0080176,16.697306 69.7197994,21.8427519 72.5994831,17.3270546 C72.5994831,17.3270546 73.2467247,19.0422032 74.4345839,20.5824217 C74.4345839,20.5824217 72.3112648,21.2829753 72.491193,23.1030821 C72.491193,23.1030821 72.4187219,25.132272 77.0252163,24.9931609 C77.0252163,24.9931609 80.2639234,24.7482586 81.2360354,23.4179564 L81.6600328,23.4179564 L81.6675298,23.4179564 L82.0915272,23.4179564 C83.0636391,24.7482586 86.3023462,24.9931609 86.3023462,24.9931609 C90.9071746,25.132272 90.8363695,23.1030821 90.8363695,23.1030821 C91.0154647,21.2829753 88.8929787,20.5824217 88.8929787,20.5824217 C90.0808378,19.0422032 90.7280794,17.3270546 90.7280794,17.3270546 C93.6060972,21.8427519 93.3195449,16.697306 93.3195449,16.697306 Z" id="Shape"></path>
            </g>
        </g>
    </g>
</svg>