<?xml version="1.0" encoding="UTF-8" standalone="no"?>
<svg width="30px" height="25px" viewBox="0 0 30 25" version="1.1" xmlns="http://www.w3.org/2000/svg" xmlns:xlink="http://www.w3.org/1999/xlink">
    <!-- Generator: Sketch 46.2 (44496) - http://www.bohemiancoding.com/sketch -->
    <title>Shape@1x</title>
    <desc>Created with Sketch.</desc>
    <defs></defs>
    <g id="首页" stroke="none" stroke-width="1" fill="none" fill-rule="evenodd">
        <g id="Desktop-HD" transform="translate(-775.000000, -486.000000)" fill-rule="nonzero" fill="#E8E7EB">
            <g id="Group-15" transform="translate(636.000000, 486.000000)">
                <path d="M147.81185,0.193510442 C138.830102,1.79216918 135.836187,11.9045497 142.980531,16.5331852 C143.372273,16.7841159 143.372273,16.7563062 142.78462,18.5036586 L142.28101,20 L144.090425,19.0334103 L145.899841,18.0668205 L146.860523,18.2991846 C147.867744,18.5501154 149.154918,18.7266993 150.012926,18.7266993 L150.525973,18.7266993 L150.348693,18.0481735 C148.940375,12.8804629 153.808956,7.75920912 160.141911,7.75920912 L161,7.75920912 L160.822801,7.14578712 C159.433034,2.30335417 153.566507,-0.828859548 147.81185,0.193510442 Z M147.292532,4.21302044 C148.193202,4.82848068 148.246196,6.15735035 147.380805,6.72815502 C145.976844,7.6556644 144.33441,6.02353788 145.279216,4.63219668 C145.694234,4.00794415 146.692111,3.80279074 147.292532,4.21302044 Z M154.298837,4.2049809 C155.797319,5.20971309 154.673477,7.530177 152.996507,6.89003312 C151.783497,6.42772407 151.640722,4.76516446 152.773512,4.16946006 C153.219501,3.92942533 153.91525,3.94718575 154.298837,4.2049809 Z M158.105198,8.18261937 C153.813866,9.0067156 150.836074,12.4358898 151.006996,16.3766426 C151.231909,21.6530703 157.106584,25.2906442 162.747321,23.6612929 L163.413038,23.4718163 L164.816512,24.2675688 C165.590212,24.7127938 166.237957,25.0348958 166.255928,24.9969677 C166.273978,24.9496191 166.121027,24.3812712 165.923109,23.7276466 C165.473282,22.2687668 165.464257,22.3729667 166.067035,21.9183212 C172.850312,16.793442 166.894727,6.5059194 158.105198,8.18261937 Z M157.600426,12.1756522 C157.921137,12.3926347 158.089153,12.9350912 157.951715,13.3303238 C157.661517,14.1749341 156.41665,14.2369196 156.080551,13.4232684 C155.698684,12.4856464 156.752683,11.6177161 157.600426,12.1756522 Z M163.669701,12.2589715 C164.172731,12.7443117 164.088893,13.5686905 163.502024,13.8768165 C162.602672,14.3390389 161.657579,13.4145941 162.122513,12.5285902 C162.42735,11.958507 163.212412,11.8198669 163.669701,12.2589715 Z" id="Shape"></path>
            </g>
        </g>
    </g>
</svg>