<?xml version="1.0" encoding="UTF-8" standalone="no"?>
<svg width="70px" height="80px" viewBox="0 0 70 80" version="1.1" xmlns="http://www.w3.org/2000/svg" xmlns:xlink="http://www.w3.org/1999/xlink">
    <!-- Generator: Sketch 46.2 (44496) - http://www.bohemiancoding.com/sketch -->
    <title>物联网解决方案@1x</title>
    <desc>Created with Sketch.</desc>
    <defs></defs>
    <g id="首页" stroke="none" stroke-width="1" fill="none" fill-rule="evenodd">
        <g id="Desktop-HD" transform="translate(-686.000000, -1345.000000)" fill-rule="nonzero" fill="#636E7D">
            <g id="物联网解决方案" transform="translate(686.000000, 1345.000000)">
                <path d="M52.4365569,80 L10.3226389,80 C4.08180203,80 0.058104598,75.2138728 0.058104598,69.3410405 L0.058104598,28.1849711 C0.058104598,24.8323699 1.51273575,21.5722543 4.05834029,19.2369942 L20.6458277,3.95375719 C23.4143193,1.39884391 27.0743589,0 30.9572856,0 L53.6213775,0 C59.3929785,0 64.0853371,3.14450867 64.085337,8.58959539 L64.085337,21.8381503 C64.085337,23.7109827 63.7099483,24.6589595 61.8095431,24.6589595 C59.909138,24.6589595 59.4164403,23.7109827 59.4164403,21.8381503 L59.4164403,7.66473992 C59.4164403,5.97687867 55.5921681,4.15028906 53.6448392,4.15028898 L30.9572856,4.15028898 C28.8691861,4.15028898 26.5933922,4.33526008 25.1270302,5.68786125 L5.95874548,23.1676301 C4.79738674,24.2427746 4.26949636,26.6936416 4.26949636,28.1849711 L4.26949636,69.3410405 C4.26949636,71.4566474 7.89434331,76.0693641 10.3226389,76.0693641 L52.4365569,76.0693641 C56.7183341,76.0693641 59.4164403,71.1213873 59.4164403,68.6011561 L59.4164403,51.4913295 C59.4164403,49.6184971 59.897407,48.5549133 61.8095431,48.5549133 C63.7099483,48.5549133 64.085337,49.6184971 64.085337,51.4913295 L64.085337,68.6011561 C64.085337,74.8901734 60.2610648,80 52.4365569,80 Z" id="Shape"></path>
                <path d="M63.3228287,26.3352601 C59.6158655,26.3352601 56.6244869,29.2947977 56.624487,32.9364162 C56.624487,34.5202312 57.18757,35.9768786 58.1377726,37.1213873 L44.729358,51.8265896 C43.4624212,50.9364162 41.9139429,50.416185 40.2364247,50.416185 C38.2539032,50.416185 36.4473451,51.1445087 35.0748303,52.3468208 L26.9335882,45.9190752 C26.9453191,45.8959538 26.95705,45.884393 26.9687809,45.8612716 C27.0860899,45.6763005 27.2151297,45.4219653 27.3324387,45.1445087 C27.3441696,45.1213873 27.3559005,45.0867052 27.3676313,45.0520231 C27.3910931,45.0057803 27.4028241,44.9595376 27.4262859,44.9017341 C27.4380168,44.8554913 27.4614786,44.8092486 27.4732094,44.7630058 C27.7078274,44.1271677 27.8720599,43.4104046 27.8720599,42.8554913 C27.8720599,42.3815029 27.8134054,41.9190752 27.7195583,41.4797688 C27.4262859,40.0115606 26.616854,38.7283237 25.4789571,37.8265896 C24.3879837,36.9595376 23.003738,36.4393064 21.4904523,36.4393063 C17.9829142,36.4393063 15.1440373,39.2369942 15.1440373,42.6936416 C15.1440373,46.1502891 17.9829143,48.9479769 21.4904523,48.9479769 C22.3937313,48.9479769 23.2500867,48.7630058 24.0243259,48.4277457 C24.3175983,48.300578 24.5874089,48.1618498 24.8572195,48 L33.2565413,54.6820809 C32.7403818,55.699422 32.4471094,56.8554913 32.4471095,58.0809248 C32.4471095,59.9075145 33.0923088,61.5722543 34.1715513,62.8901734 C35.5909897,64.6242775 37.7729365,65.7341041 40.2129629,65.7341041 C44.506471,65.7341041 47.9788163,62.3121388 47.9788163,58.0809248 C47.9788163,57.0982659 47.791122,56.1618497 47.450926,55.3063584 C47.2989646,54.9124564 47.1104723,54.5332017 46.8878429,54.1734104 L60.1672176,38.8092486 C60.695108,39.0867052 61.2699219,39.2947977 61.8681976,39.4219653 C62.3257025,39.5144509 62.8066693,39.5722543 63.2876361,39.5722543 C66.8772904,39.5722543 69.7982836,36.7976878 69.9859779,33.3179191 C69.9977088,33.2023121 69.9977088,33.0867052 69.9977088,32.9710983 C70.0211706,29.2947977 67.0180611,26.3352602 63.3228287,26.3352601 L63.3228287,26.3352601 Z" id="Shape"></path>
            </g>
        </g>
    </g>
</svg>